<?xml version="1.0" encoding="utf-8"?>
<!-- Generator: Adobe Illustrator 24.0.0, SVG Export Plug-In . SVG Version: 6.00 Build 0)  -->
<svg version="1.1" id="Слой_2_1_" xmlns="http://www.w3.org/2000/svg" xmlns:xlink="http://www.w3.org/1999/xlink" x="0px"
	 y="0px" viewBox="0 0 65 65" style="enable-background:new 0 0 65 65;" xml:space="preserve">
<g>
	<path d="M9.3,13.4c0-2.3,0-4.5,0-6.7c16.2,0,32.3,0,48.5,0c0,2.2,0,4.5,0,6.7c-0.1,0-0.2,0-0.3,0c-0.1,0.7-0.2,1.4-0.4,2.1
		c-0.4,2.5-0.9,5.1-1.3,7.6c-0.4,2.5-0.9,5.1-1.3,7.6c-0.4,2.5-0.9,5.1-1.3,7.6c-0.4,2.5-0.9,5.1-1.3,7.6c-0.4,2.6-0.9,5.3-1.4,7.9
		c-0.1,0.6-0.2,1.1-0.3,1.7c0,0.1,0,0.2-0.1,0.2c-0.8,1.9-2.1,3.2-4.1,3.7c-0.4,0.1-0.8,0.1-1.3,0.1c-7.2,0-14.3,0-21.5,0
		c-3.3,0-5.4-2.1-6.3-4.4c-0.2-0.6-0.2-1.2-0.4-1.8c-0.5-2.6-0.9-5.2-1.4-7.7c-0.5-2.8-1-5.6-1.5-8.3c-0.5-2.9-1-5.8-1.5-8.6
		c-0.5-2.7-0.9-5.4-1.4-8c-0.4-2.4-0.8-4.8-1.2-7.2C9.7,13.4,9.5,13.3,9.3,13.4z M56.1,16.5c-0.1,0.1-0.2,0.1-0.3,0.2
		c-13.3,8.6-26.7,17.2-40,25.9c-0.2,0.1-0.2,0.2-0.2,0.4c0.7,3.9,1.4,7.8,2,11.7c0.1,0.4,0.2,0.8,0.4,1.1c0.2-0.1,0.4-0.2,0.6-0.4
		C30,48.2,41.4,41,52.8,33.8c0.2-0.1,0.3-0.2,0.3-0.4c0.3-1.7,0.6-3.5,0.9-5.2c0.4-2.6,0.9-5.1,1.3-7.7
		C55.6,19.2,55.9,17.9,56.1,16.5z M15.5,41.8c0.1-0.1,0.2-0.2,0.3-0.2C29,33,42.3,24.5,55.5,15.9c0.2-0.2,0.6-0.2,0.7-0.5
		c0.2-0.2,0.1-0.6,0.2-0.9c0.1-0.4,0.1-0.8,0.2-1.2c-0.1,0-0.2,0-0.3,0c-7.2,0-14.3,0-21.5,0c-0.1,0-0.3,0.1-0.4,0.1
		c-7.1,4.5-14.2,9-21.2,13.5C13,27,13,27.1,13,27.3c0.1,0.6,0.2,1.2,0.3,1.8c0.5,2.9,1,5.8,1.5,8.7C15,39.2,15.2,40.5,15.5,41.8z
		 M18.6,56.4C18.6,56.5,18.6,56.5,18.6,56.4c0.1,0.1,0.1,0.2,0.2,0.2c1.2,1.5,2.7,2.3,4.6,2.2c4.2,0,8.5,0,12.7,0c2.9,0,5.7,0,8.6,0
		c0.3,0,0.6,0,0.9-0.1c1.9-0.3,3-1.5,3.8-3.2c0-0.1,0-0.1,0.1-0.2c0.1-0.7,0.2-1.5,0.4-2.2c0.5-2.8,1-5.7,1.5-8.5
		c0.5-2.9,1-5.7,1.5-8.6c0.1-0.4,0.1-0.9,0.2-1.4C41.5,42,30,49.2,18.6,56.4z M10.1,7.5c0,0.1,0,0.2,0,0.3c0,1.5,0,3,0,4.5
		c0,0.3,0.1,0.3,0.3,0.3c15.4,0,30.8,0,46.2,0c0.1,0,0.2,0,0.3,0c0-1.7,0-3.4,0-5.1C41.3,7.5,25.7,7.5,10.1,7.5z M32.9,13.4
		L32.9,13.4c-7.5,0-14.9,0-22.4,0c0.7,4.3,1.5,8.6,2.2,12.9C19.5,22,26.2,17.7,32.9,13.4z"/>
</g>
</svg>
