<?xml version="1.0" encoding="utf-8"?>
<!-- Generator: Adobe Illustrator 24.0.0, SVG Export Plug-In . SVG Version: 6.00 Build 0)  -->
<svg version="1.1" id="Слой_1" xmlns="http://www.w3.org/2000/svg" xmlns:xlink="http://www.w3.org/1999/xlink" x="0px" y="0px"
	 viewBox="0 0 65 65" style="enable-background:new 0 0 65 65;" xml:space="preserve">
<style type="text/css">
	.st0{stroke:#FFFFFF;stroke-width:0.15;stroke-miterlimit:10;}
</style>
<g id="Слой_2_4_">
	<g>
		<path class="st0" d="M4.1,26.1c0.8,0,1.6-0.1,2.4-0.1c2.5-0.1,5-0.1,7.5-0.2c3.1-0.1,6.1-0.2,9.3-0.3c0.3,0,0.3-0.2,0.3-0.3
			c2.4-5.9,4.7-12,7.1-17.9c0.2-0.3,0.3-0.8,0.4-1.1c0.3,0.7,0.6,1.4,0.9,2c2.4,5.5,4.8,11,7.3,16.6c0.1,0.2,0.2,0.3,0.3,0.3
			c1.7,0.2,3.4,0.3,5.1,0.4s3.3,0.3,5,0.4c1.7,0.2,3.3,0.3,5,0.4c1.7,0.2,3.2,0.3,4.9,0.4c0.1,0,0.2,0,0.3,0
			c-0.1,0.1-0.2,0.2-0.3,0.2c-5.1,4-10.2,8-15.3,12c-0.2,0.2-0.3,0.3-0.2,0.5c0.9,4.1,1.7,8.2,2.5,12.4c0.5,2.4,1,4.8,1.5,7.2v0.1
			c-0.1-0.1-0.2-0.1-0.3-0.2c-5.3-3.2-10.6-6.5-15.9-9.7c-0.2-0.1-0.3-0.1-0.5,0c-5.5,3.2-10.9,6.5-16.4,9.6
			c-0.1,0.1-0.2,0.1-0.3,0.2c0.2-0.6,0.3-1.1,0.4-1.7c1.4-5.4,2.8-10.9,4.2-16.3c0.1-0.2,0-0.3-0.2-0.4c-4.9-4.8-9.8-9.6-14.8-14.3
			C4.2,26.3,4.1,26.3,4.1,26.1C4.1,26.2,4.1,26.1,4.1,26.1z M15.9,57.4c0.1-0.1,0.2-0.1,0.3-0.2c5.1-3,10.1-5.9,15.2-8.9
			c0.2-0.1,0.3-0.1,0.5,0c4.8,3,9.8,5.9,14.7,8.9c0.1,0.1,0.2,0.1,0.3,0.2c0-0.1,0-0.2,0-0.2c-1.2-6-2.5-12.2-3.8-18.2
			c0-0.2,0-0.3,0.2-0.3c0.5-0.4,1.1-0.9,1.7-1.3c4.2-3.2,8.3-6.5,12.5-9.7c0.1-0.1,0.2-0.1,0.3-0.3c-1.7-0.2-3.3-0.3-4.9-0.4
			c-1.5-0.1-2.9-0.3-4.4-0.3c-1.7-0.2-3.3-0.3-5.1-0.4c-1.5-0.1-3-0.3-4.4-0.3c-0.2,0-0.3-0.1-0.3-0.3c-2.4-5.6-4.9-11.3-7.3-16.9
			c0-0.1-0.1-0.2-0.2-0.3C31,8.4,31,8.5,31,8.6c-2.3,5.9-4.5,11.7-6.9,17.5c-0.1,0.2-0.2,0.3-0.3,0.3c-2.4,0.1-4.9,0.2-7.3,0.3
			c-3.1,0.1-6.1,0.2-9.1,0.3c-0.3,0-0.8,0-1.1,0V27c0.1,0.1,0.2,0.1,0.3,0.2c4.5,4.5,9.2,8.8,13.7,13.2c0.2,0.2,0.2,0.3,0.2,0.4
			c-1.3,5-2.5,10-3.8,14.9C16.2,56.3,16,56.8,15.9,57.4z"/>
		<path class="st0" d="M29.7,21.3c0.3,0.1,0.5,0.2,0.8,0.3c-0.9,2.4-1.8,4.8-2.7,7.3c-0.3-0.1-0.5-0.2-0.8-0.3
			C27.9,26.2,28.8,23.7,29.7,21.3z"/>
		<path class="st0" d="M38.5,39.6c0.3-0.1,0.5-0.1,0.8-0.2c0.6,2.5,1.1,5.1,1.7,7.6c-0.3,0.1-0.5,0.1-0.8,0.2
			C39.6,44.7,39.1,42.2,38.5,39.6z"/>
	</g>
</g>
</svg>
