<?xml version="1.0" encoding="utf-8"?>
<!-- Generator: Adobe Illustrator 24.0.0, SVG Export Plug-In . SVG Version: 6.00 Build 0)  -->
<svg version="1.1" id="Слой_1" xmlns="http://www.w3.org/2000/svg" xmlns:xlink="http://www.w3.org/1999/xlink" x="0px" y="0px"
	 viewBox="0 0 65 65" style="enable-background:new 0 0 65 65;" xml:space="preserve">
<g id="Слой_2_1_">
</g>
<g id="Слой_3_2_">
	<g>
		<path d="M12.3,45.5c1.8,0,3.7,0,5.5,0c0-1.7,0-3.4,0-5.1c-1.8,0-3.7,0-5.5,0c0-2.9,0-5.8,0-8.7c1.8,0,3.7,0,5.5,0
			c0-8.3,0-16.4,0-24.7c0.1,0,0.2,0,0.2,0C23.5,7,29,7,34.4,7c2.2,0,4.4,0.1,6.4,0.7c5.3,1.4,8.8,4.7,10.8,9.8
			c1,2.5,1.2,5.1,1.1,7.8c-0.1,2.2-0.5,4.2-1.4,6.2c-1.6,3.4-4.1,5.8-7.6,7.3c-1.8,0.9-3.8,1.3-5.9,1.4c-1.2,0.1-2.4,0.1-3.6,0.1
			c-1.8,0-3.8,0-5.7,0c-0.1,0-0.2,0-0.3,0c0,1.7,0,3.4,0,5.1c4.9,0,9.7,0,14.6,0c0,2.4,0,4.8,0,7.2c-4.9,0-9.7,0-14.6,0
			c0,2.6,0,5.2,0,7.8c-3.5,0-6.9,0-10.3,0c0-2.6,0-5.1,0-7.7c-1.8,0-3.7,0-5.5,0C12.3,50.3,12.3,47.9,12.3,45.5z M18.7,59.6
			c2.9,0,5.8,0,8.7,0c0-2.6,0-5.2,0-7.7c4.9,0,9.7,0,14.6,0c0-1.8,0-3.7,0-5.5c-4.9,0-9.7,0-14.6,0c0-0.1,0-0.2,0-0.3
			c0-2,0-3.9,0-5.9c0-0.5-0.1-0.4,0.4-0.4c3,0,6.1,0,9.1-0.1c2-0.1,3.8-0.4,5.7-1.2c4.2-1.6,7.2-4.6,8.5-8.9c1-3.4,1-6.9,0.1-10.2
			c-1.4-5.5-5.9-10.3-12.9-11.1C36.6,8,34.8,8,33.1,8c-4.7,0-9.2,0-13.9,0c-0.1,0-0.1,0-0.2,0s-0.2,0.1-0.2,0.2c0,0.1,0,0.1,0,0.2
			c0,7.9,0,16,0,23.9c0,0.1,0,0.2,0,0.3c-1.8,0-3.7,0-5.5,0c0,2.4,0,4.7,0,7.1c0.1,0,0.2,0,0.3,0c1.6,0,3.3,0,4.9,0
			c0.2,0,0.3,0.1,0.3,0.3c0,2.1,0,4,0,6.1c0,0.1,0,0.2,0,0.3c-1.8,0-3.7,0-5.5,0c0,1.8,0,3.7,0,5.5c1.8,0,3.7,0,5.5,0
			C18.7,54.5,18.7,57,18.7,59.6z"/>
		<path d="M27.3,32.5c0-5.8,0-11.5,0-17.4c0.1,0,0.2,0,0.2,0c1.8,0,3.8,0,5.7,0c1.6,0,3.4,0.3,4.9,1c2.6,1.2,4.1,3.3,4.6,6.2
			c0.3,1.7,0.1,3.5-0.7,5.1c-1.2,2.6-3.2,4.2-6,4.8c-1.1,0.2-2.1,0.2-3.2,0.2c-1.7,0-3.6,0-5.3,0C27.5,32.5,27.4,32.5,27.3,32.5z
			 M28.2,31.7c0.1,0,0.2,0,0.3,0c1.5,0,3.2,0,4.7,0c0.9,0,1.8-0.1,2.7-0.2c1.7-0.3,3.3-1.1,4.4-2.5c1.4-1.8,2.1-4,1.6-6.3
			c-0.4-2.8-2-4.8-4.6-5.9c-1.5-0.5-3.2-0.8-4.8-0.8c-1.4,0-2.7,0-4.1,0c-0.1,0-0.2,0-0.3,0C28.2,21.2,28.2,26.5,28.2,31.7z"/>
	</g>
</g>
</svg>
