<?xml version="1.0" encoding="utf-8"?>
<!-- Generator: Adobe Illustrator 24.0.0, SVG Export Plug-In . SVG Version: 6.00 Build 0)  -->
<svg version="1.1" id="Слой_1" xmlns="http://www.w3.org/2000/svg" xmlns:xlink="http://www.w3.org/1999/xlink" x="0px" y="0px"
	 viewBox="0 0 65 65" style="enable-background:new 0 0 65 65;" xml:space="preserve">
<style type="text/css">
	.st0{stroke:#FFFFFF;stroke-width:0.15;stroke-miterlimit:10;}
</style>
<g id="Слой_2_3_">
	<g>
		<path class="st0" d="M2.2,43.1c0,3.1,0,6.3,0,9.5c-0.3,0-0.6,0-0.8,0c0-3.8,0-7.5,0-11.3c4,0,8.1,0,12.2,0c0-0.1,0-0.2,0-0.3
			c0-3.4,0-6.9,0-10.3c0-0.6,0.1-1.1,0-1.8c3.9,0,7.8,0,11.7,0c0-3.5,0-6.9,0-10.4c3.9,0,7.8,0,11.7,0c0-4.1,0-8.2,0-12.4
			c4.1,0,8.1,0,12.2,0c0,0.2,0,0.5,0,0.7l-0.1,0.1c-0.1,0-0.2,0-0.2,0c-3.4,0-6.9,0-10.3,0c-0.1,0-0.2,0-0.3,0c0,0,0,0,0,0.1
			c0.5,0.2,1,0.4,1.4,0.6c4.5,1.8,8.9,3.6,13.4,5.4c0.2,0.1,0.4,0.1,0.6,0.1c3.5,0,6.9,0,10.4,0c0.4,0,0.4,0,0.4,0.4
			c0,0.2,0,0.3,0,0.5c-3.8,0-7.5,0-11.3,0c0,4.1,0,8.2,0,12.4c-3.9,0-7.8,0-11.7,0c0,3.5,0,6.9,0,10.3c-0.1,0-0.3,0-0.4,0
			c-3.6,0-7.2,0-10.9,0c-0.5,0-0.4-0.1-0.4,0.4c0,3.8,0,7.7,0,11.5c0,0.1,0,0.2,0,0.4c-0.2,0-0.3,0-0.4,0c-3.8,0-7.6,0-11.4,0
			c-0.4,0-0.4,0-0.4,0.4c0,3.2,0,6.5,0,9.8c0,0.1,0,0.2,0,0.4c-0.3,0-0.6,0-0.9,0c0-0.1,0-0.2,0-0.3c0-3.3,0-6.7,0-10.1
			c0-0.2-0.1-0.3-0.3-0.4c-4.6-1.9-9.1-3.6-13.7-5.5C2.4,43.2,2.3,43.2,2.2,43.1z M2.2,42.2C2.2,42.2,2.2,42.3,2.2,42.2
			c0,0.1,0.1,0.2,0.2,0.2c4.9,2,9.7,3.9,14.5,5.9c0.1,0.1,0.3,0.1,0.4,0.1c3.6,0,7.3,0,10.9,0c0.1,0,0.2,0,0.3,0c0-0.1,0-0.2,0-0.2
			c0-3.8,0-7.5,0-11.3c0-0.2-0.1-0.3-0.2-0.3c-4.6-1.9-9.2-3.6-13.8-5.5c-0.1,0-0.2-0.1-0.3-0.1c0,3.8,0,7.6,0,11.4
			C10.4,42.2,6.3,42.2,2.2,42.2z M52,25.5c0-0.1,0-0.2,0-0.3c0-3.8,0-7.5,0-11.3c0-0.2-0.1-0.3-0.3-0.4c-4.6-1.9-9.1-3.6-13.7-5.5
			c-0.1,0-0.2-0.1-0.4-0.1c0,3.8,0,7.6,0,11.5c-3.8,0-7.6,0-11.4,0c0.1,0.1,0.2,0.1,0.3,0.2c4.9,2,9.7,3.9,14.5,5.8
			c0.2,0.1,0.4,0.1,0.6,0.1c3.3,0,6.6,0,10,0C51.8,25.5,51.9,25.5,52,25.5z M40.3,35.9c0-0.1,0-0.2,0-0.3c0-3.1,0-6.2,0-9.4
			c0-0.2-0.1-0.3-0.3-0.4c-4.6-1.9-9.2-3.6-13.8-5.5c-0.1,0-0.2-0.1-0.3-0.1c0,3.2,0,6.3,0,9.5c-3.9,0-7.7,0-11.6,0
			c0.1,0.1,0.2,0.1,0.2,0.2c4.9,2,9.7,3.9,14.5,5.9c0.2,0.1,0.4,0.1,0.6,0.1c3.4,0,6.7,0,10.2,0C40.1,35.9,40.2,35.9,40.3,35.9z"/>
	</g>
</g>
</svg>
