<?xml version="1.0" encoding="utf-8"?>
<!-- Generator: Adobe Illustrator 24.0.0, SVG Export Plug-In . SVG Version: 6.00 Build 0)  -->
<svg version="1.1" id="Слой_1" xmlns="http://www.w3.org/2000/svg" xmlns:xlink="http://www.w3.org/1999/xlink" x="0px" y="0px"
	 viewBox="0 0 65 65" style="enable-background:new 0 0 65 65;" xml:space="preserve">
<style type="text/css">
	.st0{fill:none;}
	.st1{stroke:#F0EBE5;stroke-width:0.2;stroke-miterlimit:10;}
</style>
<g id="Слой_2_1_">
</g>
<g>
	<path class="st0" d="M56.4,43.2c-3.1-1.5-5.9-2.7-8.5-5c-3.4-2.8-7.8-4.6-12.2-3.7c-3.7,0.7-7.4,2.4-10.1,4.9
		c-1.1,0.8-1.6,2-1.6,3.4c0,0.4,0.1,0.7,0.4,0.9c0.5,0.5,1.2,0.7,1.8,1.1c4.7,2.5,9.8,3,15,1.7c0.5-0.1,0.8-0.1,1.1,0.4
		c0.1,0.6-0.2,0.7-0.7,0.8c-4.5,1.1-9,0.9-13.4-0.7c-1.5-0.6-3-1.4-4.5-2.1c-0.1,0.4-0.4,0.8-0.6,1.2c-0.2,0.4-0.6,0.7-0.9,0.4
		c-0.2-0.1-0.2-0.7-0.1-0.9c0.8-1.8,1.4-3.7,1.3-5.6c-0.1-3.2-0.6-6.4-1.9-9.5c-0.2-0.5-0.4-1.1-0.4-1.7c-0.1-1.9-0.2-3.9-0.5-5.8
		c0-0.2,0-0.5-0.1-0.6c-0.5-0.5-1.1-0.8-1.7-1.3c0.1,0.1,0.2,0.4,0.1,0.7c0,1.4-0.1,2.8-0.1,4.4c0,0.5-0.1,0.9-0.8,0.9
		c-0.6-0.1-0.5-0.6-0.5-1.1c0-2.4,0-4.6,0-7c-0.6,0-1.1,0.1-1.5,0c-0.2-0.1-0.5-0.5-0.6-0.7c0-0.1,0.4-0.5,0.6-0.6
		c0.2-0.1,0.6,0,0.8,0c1.4,0,1.8-0.5,1.7-1.9c0-0.2,0.1-0.7,0.2-0.8c0.2-0.1,0.7,0,0.9,0.1c0.7,0.7,1.4,1.4,2,2.1
		c0.5,0.5,0.2,0.9-0.5,1.1c-1.2,0.2-1.5,1.1-0.9,2.1c0.8,1.3,1.9,1.2,3.1,0.9c1.3-0.2,1.4-0.2,1.3-1.5C24.3,17.9,24,16,23.7,14
		c0-0.2,0.2-0.6,0.4-0.9c0.2,0.2,0.7,0.4,0.8,0.7c0.2,0.5,0.2,1.1,0.4,1.5c0.2,1.7,0.5,3.2,0.7,4.9c1.3-0.4,1.5-0.6,1.3-1.8
		c-0.2-1.7-0.6-3.4-0.8-5.1c0-0.2,0.2-0.7,0.4-0.7c0.2,0,0.7,0.1,0.8,0.4c0.2,0.2,0.2,0.7,0.4,1.1c0.2,1.7,0.5,3.3,0.7,5
		c1.2,0,1.5-0.4,1.4-1.4c-0.2-1.7-0.6-3.3-0.7-5c0-0.2,0.1-0.7,0.4-0.7c0.2,0,0.7,0.1,0.8,0.2c0.2,0.2,0.4,0.7,0.4,1.1
		c0.1,1.4,0.4,3,0.6,4.6c1.4,0.1,2.1-0.7,1.7-2c-0.7-1.9-1.3-3.9-2-5.8C31,9.4,31,8.6,30.7,8c-0.2-0.6-0.6-0.9-1.4-0.9
		c-1.4,0-2.7,0-4.1,0C22.3,7.2,19.5,7.7,17,9c-1.9,0.9-3.1,2.4-3.6,4.5c-0.4,1.7-0.8,3.3-1.3,5c-1.2,4.1-1.9,8.4-3.6,12.4
		c-1.3,3.2-2,6.6-1.7,10.2c0.1,1.3,0.2,2.7,0.4,4c0,2,0,4,0,6c0,2.5,0.7,3.6,3.1,3.9c1.9,0.2,3.7,0.4,5.6,0.5c1.7,0,3.1-0.5,4.5-1.3
		c0.4-0.2,0.7-0.5,1.1,0s0,0.8-0.4,1.1s-0.7,0.5-1.1,0.7c0,0.1,0,0.2,0,0.4c4.5,0.5,9.1,1.1,13.6,1.4c5.8,0.4,11.5-0.2,17-2
		c1.9-0.6,3.7-1.3,5.2-2.6c0.8-0.7,2-2,2-3.1c-0.1-1.9-0.2-3.5-1-5.4C56.9,44.3,56.7,43.5,56.4,43.2z"/>
	<path class="st0" d="M30.7,19.5c-0.5,0.1-0.9,0.4-1.4,0.6c-0.8,0.4-1.8,0.8-2.6,1.2c0.2,0.4,0.6,0.5,0.7,0.5
		c1.7-0.6,3.3-1.3,4.9-1.9c0.2-0.1,0.2-0.5,0.5-0.7c0-0.1-0.1-0.2-0.1-0.2C32,19.2,31.3,19.3,30.7,19.5z"/>
	<path class="st1" d="M58.1,43.4c-0.2-0.7-0.7-1.1-1.4-1.4c-3-1.3-5.7-3-8.2-5c-3.4-2.8-7.5-4.4-12.1-3.8c-3.8,0.5-7.1,2.2-10.3,4.4
		c-0.6,0.4-1.1,0.8-1.8,1.3c0-0.4,0-0.6,0.2-0.4c-0.5-2.5-0.7-5-1.5-7.3c-0.8-2.5-0.9-5-1.1-7.6c-0.1-0.5,0.1-0.7,0.6-0.7
		c0.8-0.1,1.7-0.1,2.4-0.4c0.5-0.1,0.8-0.1,1.2,0.2c0.8,0.7,1.7,0.7,2.7,0.2c1.1-0.6,2.1-0.9,3.2-1.3c1.3-0.5,2-1.5,2.1-2.8
		c0-0.2,0.1-0.6,0.4-0.8c0.5-0.7,0.6-1.4,0.2-2.2c-0.9-2.2-1.9-4.5-2.2-7C32.4,8.2,32,7.6,31.7,7C31.2,6.4,30.6,6,29.8,6
		c-1.8,0-3.7,0-5.4,0.1c-2.4,0.1-4.6,0.6-6.7,1.5c-2.5,1.1-4.4,2.6-5.1,5.4c-0.6,2.1-1.1,4.3-1.7,6.4c-0.9,3.6-1.5,7.2-3.1,10.7
		C6,34.2,5.6,38.6,6.1,43c0.2,2.4,0.1,4.9,0.2,7.2c0.1,0.8,0,1.8,0.1,2.6c0.2,1.5,1.1,2.7,2.7,3.2c0.9,0.4,1.9,0.5,3,0.6
		c1.9,0.1,3.8,0,5.7,0.4c5.8,0.9,11.5,1.8,17.4,2c5.3,0.1,10.5-0.5,15.6-2c2-0.6,4-1.4,5.8-2.7c1.2-0.9,2.2-2,2.4-3.6
		C59.3,48.2,58.9,45.8,58.1,43.4z M32.3,19.9c-1.5,0.6-3.2,1.3-4.9,1.9c-0.1,0-0.5-0.1-0.7-0.5c0.8-0.4,1.8-0.8,2.6-1.2
		c0.5-0.2,0.9-0.5,1.4-0.6c0.6-0.2,1.3-0.4,1.9-0.6c0,0,0.1,0.1,0.1,0.2C32.5,19.4,32.5,19.8,32.3,19.9z M55.9,53.1
		c-1.5,1.3-3.3,2-5.2,2.6c-5.6,1.8-11.2,2.4-17,2c-4.5-0.4-9.1-0.9-13.6-1.4c0-0.1,0-0.2,0-0.4c0.4-0.2,0.7-0.5,1.1-0.7
		s0.7-0.6,0.4-1.1s-0.7-0.2-1.1,0c-1.4,0.8-2.8,1.3-4.5,1.3c-1.9-0.1-3.7-0.2-5.6-0.5c-2.4-0.4-3.1-1.4-3.1-3.9c0-2,0-4,0-6
		c-0.1-1.3-0.2-2.7-0.4-4c-0.4-3.6,0.4-7,1.7-10.2c1.7-4,2.4-8.3,3.6-12.4c0.5-1.7,0.9-3.3,1.3-5c0.5-2.1,1.7-3.6,3.6-4.5
		c2.5-1.3,5.3-1.8,8.2-1.9c1.4,0,2.7,0,4.1,0c0.8,0,1.2,0.4,1.4,0.9C31,8.6,31,9.4,31.2,9.9c0.7,1.9,1.3,3.9,2,5.8
		c0.5,1.3-0.2,2.1-1.7,2c-0.2-1.7-0.5-3.2-0.6-4.6c0-0.4-0.1-0.8-0.4-1.1c-0.1-0.1-0.6-0.2-0.8-0.2c-0.2,0-0.4,0.5-0.4,0.7
		c0.1,1.7,0.5,3.3,0.7,5c0.1,1.1-0.2,1.4-1.4,1.4c-0.2-1.7-0.5-3.3-0.7-5c-0.1-0.4-0.1-0.8-0.4-1.1c-0.1-0.2-0.6-0.4-0.8-0.4
		c-0.1,0-0.4,0.5-0.4,0.7c0.2,1.7,0.6,3.4,0.8,5.1c0.2,1.2,0,1.4-1.3,1.8c-0.2-1.7-0.5-3.2-0.7-4.9c-0.1-0.5-0.1-1.1-0.4-1.5
		c-0.1-0.4-0.6-0.5-0.8-0.7c-0.1,0.4-0.4,0.7-0.4,0.9c0.2,2,0.6,3.9,0.8,5.8c0.1,1.3,0,1.3-1.3,1.5c-1.2,0.2-2.2,0.4-3.1-0.9
		c-0.6-1.1-0.2-1.9,0.9-2.1c0.7-0.1,0.9-0.6,0.5-1.1c-0.6-0.7-1.3-1.4-2-2.1c-0.2-0.1-0.7-0.2-0.9-0.1c-0.1,0.1-0.2,0.6-0.2,0.8
		c0.1,1.4-0.2,1.9-1.7,1.9c-0.2,0-0.6-0.1-0.8,0c-0.2,0.1-0.6,0.5-0.6,0.6c0.1,0.2,0.4,0.6,0.6,0.7c0.5,0.1,0.9,0,1.5,0
		c0,2.4,0,4.6,0,7c0,0.5-0.1,0.9,0.5,1.1c0.7,0,0.8-0.5,0.8-0.9c0-1.5,0.1-3,0.1-4.4c0.1-0.4,0-0.6-0.1-0.7c0.6,0.5,1.2,0.8,1.7,1.3
		c0.1,0.1,0.1,0.4,0.1,0.6c0.2,1.9,0.4,3.9,0.5,5.8c0,0.6,0.1,1.2,0.4,1.7c1.3,3.1,1.8,6.3,1.9,9.5c0.1,1.9-0.5,3.8-1.3,5.6
		c-0.1,0.2-0.1,0.8,0.1,0.9c0.4,0.4,0.7,0,0.9-0.4c0.2-0.4,0.5-0.8,0.6-1.2c1.5,0.7,3,1.5,4.5,2.1c4.4,1.7,8.9,1.8,13.4,0.7
		c0.5-0.1,0.8-0.2,0.7-0.8c-0.2-0.5-0.6-0.5-1.1-0.4c-5.2,1.3-10.3,0.8-15-1.7c-0.6-0.4-1.3-0.6-1.8-1.1c-0.2-0.2-0.4-0.6-0.4-0.9
		c0-1.4,0.5-2.5,1.6-3.4c2.7-2.5,6.5-4.1,10.1-4.9c4.4-0.8,8.7,0.9,12.2,3.7c2.6,2.2,5.4,3.5,8.5,5c0.4,0.2,0.5,1,0.6,1.4
		c0.7,1.9,0.8,3.5,1,5.4C58,51.1,56.8,52.4,55.9,53.1z"/>
</g>
</svg>
