<?xml version="1.0" encoding="utf-8"?>
<!-- Generator: Adobe Illustrator 24.0.0, SVG Export Plug-In . SVG Version: 6.00 Build 0)  -->
<svg version="1.1" id="Слой_1" xmlns="http://www.w3.org/2000/svg" xmlns:xlink="http://www.w3.org/1999/xlink" x="0px" y="0px"
	 viewBox="0 0 65 65" style="enable-background:new 0 0 65 65;" xml:space="preserve">
<style type="text/css">
	.st0{stroke:#000000;stroke-width:0.25;stroke-miterlimit:10;}
</style>
<g id="Слой_2_1_">
</g>
<g id="Слой_3">
	<g>
		<path class="st0" d="M62.9,25.3c-0.1,2.4-0.7,4.7-1.8,6.9c-0.8,1.7-1.8,3.1-3.1,4.4C50,44.5,42.2,52.4,34.2,60.2
			c-0.4,0.4-0.5,0.4-0.8,0c-3.3-3.3-6.6-6.6-10-10c-4.5-4.5-9-8.9-13.5-13.5c-2.7-2.7-4.3-5.8-5-9.5c-0.1-0.6-0.2-1.3-0.2-1.9
			c0-0.1,0-1.6,0-1.7c0.3-4.2,1.8-7.9,4.8-11.1c2.4-2.5,5.3-4.1,8.7-4.9c1.2-0.3,2.5-0.5,3.7-0.5c4.1,0.1,7.7,1.4,10.9,3.9
			c0.3,0.2,0.5,0.5,0.7,0.6c0.2,0.2,0.5,0.2,0.6,0c2.3-2,4.9-3.4,7.9-4.1c3.8-0.8,7.5-0.4,11,1.3c4.2,2,7.2,5.3,8.9,9.8
			c0.6,1.6,0.9,3.2,1,4.9C62.9,23.8,62.9,25.2,62.9,25.3z M22,8c-1.2,0-2.3,0.1-3.4,0.4C13.2,9.6,9.4,12.8,7,17.5
			c-1.5,3-1.8,6.4-1.3,9.7c0.5,3,1.7,5.7,3.7,8c0.8,0.9,1.8,1.8,2.7,2.8c7.2,7.2,14.4,14.4,21.5,21.5c0.2,0.2,0.5,0.2,0.6,0
			c7.8-7.8,15.6-15.6,23.4-23.4c0.3-0.3,0.5-0.5,0.6-0.7c2.2-2.6,3.6-5.6,3.9-9c0.2-1.9,0.1-3.9-0.4-5.8c-0.7-3.1-2.4-5.8-4.7-8
			c-4-3.8-8.8-5.1-14.1-4.2c-3.4,0.6-6.3,2-8.7,4.4c-0.3,0.3-0.5,0.3-0.7,0c-0.4-0.4-0.8-0.7-1.2-1.1C29.3,9.2,25.8,8,22,8z"/>
		<path class="st0" d="M7.4,23.9c0,0.2,0,0.3,0,0.5c0,0.3,0.1,0.6,0.4,0.6c0.2,0,0.4-0.2,0.4-0.6c0-1.1,0.1-2.2,0.4-3.3
			c1.2-4.5,4.1-7.7,8.4-9.5c1.6-0.6,3.1-0.9,4.8-0.9c0.4,0,0.6-0.1,0.6-0.4c0-0.2-0.2-0.4-0.6-0.4c-0.6,0.1-1.4,0.1-2,0.2
			c-3,0.5-5.7,1.8-7.9,4.1C9.1,16.8,7.6,20.1,7.4,23.9z"/>
		<path class="st0" d="M7.4,23.9c0.3-3.8,1.7-7,4.3-9.7c2.2-2.2,4.9-3.5,7.9-4.1c0.6-0.1,1.4-0.2,2-0.2c0.4,0,0.6,0.1,0.6,0.4
			c0,0.2-0.2,0.4-0.6,0.4c-1.7,0-3.3,0.3-4.8,0.9c-4.3,1.8-7.2,4.9-8.5,9.4c-0.3,1.1-0.4,2.2-0.4,3.3c0,0.3-0.1,0.6-0.4,0.6
			c-0.2,0-0.4-0.2-0.4-0.6C7.4,24.2,7.4,24,7.4,23.9z"/>
	</g>
</g>
</svg>
