<?xml version="1.0" encoding="UTF-8" standalone="no"?>
<svg
   xmlns:dc="http://purl.org/dc/elements/1.1/"
   xmlns:cc="http://creativecommons.org/ns#"
   xmlns:rdf="http://www.w3.org/1999/02/22-rdf-syntax-ns#"
   xmlns:svg="http://www.w3.org/2000/svg"
   xmlns="http://www.w3.org/2000/svg"
   xmlns:sodipodi="http://sodipodi.sourceforge.net/DTD/sodipodi-0.dtd"
   xmlns:inkscape="http://www.inkscape.org/namespaces/inkscape"
   version="1.1"
   id="Слой_1"
   x="0px"
   y="0px"
   viewBox="0 0 65 65"
   style="enable-background:new 0 0 65 65;"
   xml:space="preserve"
   sodipodi:docname="best4_3.svg"
   inkscape:version="1.0.1 (3bc2e813f5, 2020-09-07)"><metadata
   id="metadata104"><rdf:RDF><cc:Work
       rdf:about=""><dc:format>image/svg+xml</dc:format><dc:type
         rdf:resource="http://purl.org/dc/dcmitype/StillImage" /><dc:title></dc:title></cc:Work></rdf:RDF></metadata><defs
   id="defs102" /><sodipodi:namedview
   pagecolor="#ffffff"
   bordercolor="#666666"
   borderopacity="1"
   objecttolerance="10"
   gridtolerance="10"
   guidetolerance="10"
   inkscape:pageopacity="0"
   inkscape:pageshadow="2"
   inkscape:window-width="1920"
   inkscape:window-height="1017"
   id="namedview100"
   showgrid="false"
   inkscape:zoom="9.246781"
   inkscape:cx="42.618746"
   inkscape:cy="31.100831"
   inkscape:window-x="-8"
   inkscape:window-y="-8"
   inkscape:window-maximized="1"
   inkscape:current-layer="g106" />
<style
   type="text/css"
   id="style88">
	.st0{fill:none;}
	.st1{stroke:#F0EBE5;stroke-width:0.2;stroke-miterlimit:10;}
</style>
<g
   id="Слой_2_1_">
</g>
<g
   id="g97">
	<path
   class="st0"
   d="M56.4,43.2c-3.1-1.5-5.9-2.7-8.5-5c-3.4-2.8-7.8-4.6-12.2-3.7c-3.7,0.7-7.4,2.4-10.1,4.9   c-1.1,0.8-1.6,2-1.6,3.4c0,0.4,0.1,0.7,0.4,0.9c0.5,0.5,1.2,0.7,1.8,1.1c4.7,2.5,9.8,3,15,1.7c0.5-0.1,0.8-0.1,1.1,0.4   c0.1,0.6-0.2,0.7-0.7,0.8c-4.5,1.1-9,0.9-13.4-0.7c-1.5-0.6-3-1.4-4.5-2.1c-0.1,0.4-0.4,0.8-0.6,1.2c-0.2,0.4-0.6,0.7-0.9,0.4   c-0.2-0.1-0.2-0.7-0.1-0.9c0.8-1.8,1.4-3.7,1.3-5.6c-0.1-3.2-0.6-6.4-1.9-9.5c-0.2-0.5-0.4-1.1-0.4-1.7c-0.1-1.9-0.2-3.9-0.5-5.8   c0-0.2,0-0.5-0.1-0.6c-0.5-0.5-1.1-0.8-1.7-1.3c0.1,0.1,0.2,0.4,0.1,0.7c0,1.4-0.1,2.8-0.1,4.4c0,0.5-0.1,0.9-0.8,0.9   c-0.6-0.1-0.5-0.6-0.5-1.1c0-2.4,0-4.6,0-7c-0.6,0-1.1,0.1-1.5,0c-0.2-0.1-0.5-0.5-0.6-0.7c0-0.1,0.4-0.5,0.6-0.6   c0.2-0.1,0.6,0,0.8,0c1.4,0,1.8-0.5,1.7-1.9c0-0.2,0.1-0.7,0.2-0.8c0.2-0.1,0.7,0,0.9,0.1c0.7,0.7,1.4,1.4,2,2.1   c0.5,0.5,0.2,0.9-0.5,1.1c-1.2,0.2-1.5,1.1-0.9,2.1c0.8,1.3,1.9,1.2,3.1,0.9c1.3-0.2,1.4-0.2,1.3-1.5C24.3,17.9,24,16,23.7,14   c0-0.2,0.2-0.6,0.4-0.9c0.2,0.2,0.7,0.4,0.8,0.7c0.2,0.5,0.2,1.1,0.4,1.5c0.2,1.7,0.5,3.2,0.7,4.9c1.3-0.4,1.5-0.6,1.3-1.8   c-0.2-1.7-0.6-3.4-0.8-5.1c0-0.2,0.2-0.7,0.4-0.7c0.2,0,0.7,0.1,0.8,0.4c0.2,0.2,0.2,0.7,0.4,1.1c0.2,1.7,0.5,3.3,0.7,5   c1.2,0,1.5-0.4,1.4-1.4c-0.2-1.7-0.6-3.3-0.7-5c0-0.2,0.1-0.7,0.4-0.7c0.2,0,0.7,0.1,0.8,0.2c0.2,0.2,0.4,0.7,0.4,1.1   c0.1,1.4,0.4,3,0.6,4.6c1.4,0.1,2.1-0.7,1.7-2c-0.7-1.9-1.3-3.9-2-5.8C31,9.4,31,8.6,30.7,8c-0.2-0.6-0.6-0.9-1.4-0.9   c-1.4,0-2.7,0-4.1,0C22.3,7.2,19.5,7.7,17,9c-1.9,0.9-3.1,2.4-3.6,4.5c-0.4,1.7-0.8,3.3-1.3,5c-1.2,4.1-1.9,8.4-3.6,12.4   c-1.3,3.2-2,6.6-1.7,10.2c0.1,1.3,0.2,2.7,0.4,4c0,2,0,4,0,6c0,2.5,0.7,3.6,3.1,3.9c1.9,0.2,3.7,0.4,5.6,0.5c1.7,0,3.1-0.5,4.5-1.3   c0.4-0.2,0.7-0.5,1.1,0s0,0.8-0.4,1.1s-0.7,0.5-1.1,0.7c0,0.1,0,0.2,0,0.4c4.5,0.5,9.1,1.1,13.6,1.4c5.8,0.4,11.5-0.2,17-2   c1.9-0.6,3.7-1.3,5.2-2.6c0.8-0.7,2-2,2-3.1c-0.1-1.9-0.2-3.5-1-5.4C56.9,44.3,56.7,43.5,56.4,43.2z"
   id="path91" />
	<path
   class="st0"
   d="M30.7,19.5c-0.5,0.1-0.9,0.4-1.4,0.6c-0.8,0.4-1.8,0.8-2.6,1.2c0.2,0.4,0.6,0.5,0.7,0.5   c1.7-0.6,3.3-1.3,4.9-1.9c0.2-0.1,0.2-0.5,0.5-0.7c0-0.1-0.1-0.2-0.1-0.2C32,19.2,31.3,19.3,30.7,19.5z"
   id="path93" />
	<g
   id="g106"
   style="opacity:1"><path
     style="color:#000000;font-style:normal;font-variant:normal;font-weight:normal;font-stretch:normal;font-size:medium;line-height:normal;font-family:sans-serif;font-variant-ligatures:normal;font-variant-position:normal;font-variant-caps:normal;font-variant-numeric:normal;font-variant-alternates:normal;font-variant-east-asian:normal;font-feature-settings:normal;font-variation-settings:normal;text-indent:0;text-align:start;text-decoration:none;text-decoration-line:none;text-decoration-style:solid;text-decoration-color:#000000;letter-spacing:normal;word-spacing:normal;text-transform:none;writing-mode:lr-tb;direction:ltr;text-orientation:mixed;dominant-baseline:auto;baseline-shift:baseline;text-anchor:start;white-space:normal;shape-padding:0;shape-margin:0;inline-size:0;clip-rule:nonzero;display:inline;overflow:visible;visibility:visible;isolation:auto;mix-blend-mode:normal;color-interpolation:sRGB;color-interpolation-filters:linearRGB;solid-color:#000000;solid-opacity:1;vector-effect:none;fill:#000000;fill-opacity:1;fill-rule:nonzero;stroke:none;stroke-width:0.2;stroke-linecap:butt;stroke-linejoin:miter;stroke-miterlimit:10;stroke-dasharray:none;stroke-dashoffset:0;stroke-opacity:1.0;color-rendering:auto;image-rendering:auto;shape-rendering:auto;text-rendering:auto;enable-background:accumulate;stop-color:#000000;stop-opacity:1;"
     d="M 58.1,43.4 C 57.9,42.7 57.4,42.3 56.7,42 53.7,40.7 51,39 48.5,37 45.1,34.2 41,32.6 36.4,33.2 c -3.8,0.5 -7.1,2.2 -10.3,4.4 -0.6,0.4 -1.1,0.8 -1.8,1.3 0,-0.4 0,-0.6 0.2,-0.4 -0.5,-2.5 -0.7,-5 -1.5,-7.3 -0.8,-2.5 -0.9,-5 -1.1,-7.6 -0.1,-0.5 0.1,-0.7 0.6,-0.7 0.8,-0.1 1.7,-0.1 2.4,-0.4 0.5,-0.1 0.8,-0.1 1.2,0.2 0.8,0.7 1.7,0.7 2.7,0.2 1.1,-0.6 2.1,-0.9 3.2,-1.3 1.3,-0.5 2,-1.5 2.1,-2.8 0,-0.2 0.1,-0.6 0.4,-0.8 0.5,-0.7 0.6,-1.4 0.2,-2.2 -0.9,-2.2 -1.9,-4.5 -2.2,-7 C 32.4,8.2 32,7.6 31.7,7 31.2,6.4 30.6,6 29.8,6 28,6 26.1,6 24.4,6.1 22,6.2 19.8,6.7 17.7,7.6 15.2,8.7 13.3,10.2 12.6,13 12,15.1 11.5,17.3 10.9,19.4 10,23 9.4,26.6 7.8,30.1 6,34.2 5.6,38.6 6.1,43 c 0.2,2.4 0.1,4.9 0.2,7.2 0.1,0.8 0,1.8 0.1,2.6 0.2,1.5 1.1,2.7 2.7,3.2 0.9,0.4 1.9,0.5 3,0.6 1.9,0.1 3.8,0 5.7,0.4 5.8,0.9 11.5,1.8 17.4,2 5.3,0.1 10.5,-0.5 15.6,-2 2,-0.6 4,-1.4 5.8,-2.7 1.2,-0.9 2.2,-2 2.4,-3.6 0.3,-2.5 -0.1,-4.9 -0.9,-7.3 z M 32.3,19.9 c -1.5,0.6 -3.2,1.3 -4.9,1.9 -0.1,0 -0.5,-0.1 -0.7,-0.5 0.8,-0.4 1.8,-0.8 2.6,-1.2 0.5,-0.2 0.9,-0.5 1.4,-0.6 0.6,-0.2 1.3,-0.4 1.9,-0.6 0,0 0.1,0.1 0.1,0.2 -0.2,0.3 -0.2,0.7 -0.4,0.8 z m 23.6,33.2 c -1.5,1.3 -3.3,2 -5.2,2.6 -5.6,1.8 -11.2,2.4 -17,2 -4.5,-0.4 -9.1,-0.9 -13.6,-1.4 v -0.4 c 0.4,-0.2 0.7,-0.5 1.1,-0.7 0.4,-0.2 0.7,-0.6 0.4,-1.1 -0.3,-0.5 -0.7,-0.2 -1.1,0 -1.4,0.8 -2.8,1.3 -4.5,1.3 C 14.1,55.3 12.3,55.2 10.4,54.9 8,54.5 7.3,53.5 7.3,51 V 45 C 7.2,43.7 7.1,42.3 6.9,41 6.5,37.4 7.3,34 8.6,30.8 c 1.7,-4 2.4,-8.3 3.6,-12.4 0.5,-1.7 0.9,-3.3 1.3,-5 C 14,11.3 15.2,9.8 17.1,8.9 19.6,7.6 22.4,7.1 25.3,7 h 4.1 c 0.8,0 1.2,0.4 1.4,0.9 0.2,0.7 0.2,1.5 0.4,2 0.7,1.9 1.3,3.9 2,5.8 0.5,1.3 -0.2,2.1 -1.7,2 -0.2,-1.7 -0.5,-3.2 -0.6,-4.6 0,-0.4 -0.1,-0.8 -0.4,-1.1 -0.1,-0.1 -0.6,-0.2 -0.8,-0.2 -0.2,0 -0.4,0.5 -0.4,0.7 0.1,1.7 0.5,3.3 0.7,5 0.1,1.1 -0.2,1.4 -1.4,1.4 -0.2,-1.7 -0.5,-3.3 -0.7,-5 -0.1,-0.4 -0.1,-0.8 -0.4,-1.1 -0.1,-0.2 -0.6,-0.4 -0.8,-0.4 -0.1,0 -0.4,0.5 -0.4,0.7 0.2,1.7 0.6,3.4 0.8,5.1 0.2,1.2 0,1.4 -1.3,1.8 C 25.6,18.3 25.3,16.8 25.1,15.1 25,14.6 25,14 24.7,13.6 c -0.1,-0.4 -0.6,-0.5 -0.8,-0.7 -0.1,0.4 -0.4,0.7 -0.4,0.9 0.2,2 0.6,3.9 0.8,5.8 0.1,1.3 0,1.3 -1.3,1.5 -1.2,0.2 -2.2,0.4 -3.1,-0.9 -0.6,-1.1 -0.2,-1.9 0.9,-2.1 0.7,-0.1 0.9,-0.6 0.5,-1.1 -0.6,-0.7 -1.3,-1.4 -2,-2.1 -0.2,-0.1 -0.7,-0.2 -0.9,-0.1 -0.1,0.1 -0.2,0.6 -0.2,0.8 0.1,1.4 -0.2,1.9 -1.7,1.9 -0.2,0 -0.6,-0.1 -0.8,0 -0.2,0.1 -0.6,0.5 -0.6,0.6 0.1,0.2 0.4,0.6 0.6,0.7 0.5,0.1 0.9,0 1.5,0 v 7 c 0,0.5 -0.1,0.9 0.5,1.1 0.7,0 0.8,-0.5 0.8,-0.9 0,-1.5 0.1,-3 0.1,-4.4 0.1,-0.4 0,-0.6 -0.1,-0.7 0.6,0.5 1.2,0.8 1.7,1.3 0.1,0.1 0.1,0.4 0.1,0.6 0.2,1.9 0.4,3.9 0.5,5.8 0,0.6 0.1,1.2 0.4,1.7 1.3,3.1 1.8,6.3 1.9,9.5 0.1,1.9 -0.5,3.8 -1.3,5.6 -0.1,0.2 -0.1,0.8 0.1,0.9 0.4,0.4 0.7,0 0.9,-0.4 0.2,-0.4 0.5,-0.8 0.6,-1.2 1.5,0.7 3,1.5 4.5,2.1 4.4,1.7 8.9,1.8 13.4,0.7 0.5,-0.1 0.8,-0.2 0.7,-0.8 -0.2,-0.5 -0.6,-0.5 -1.1,-0.4 -5.2,1.3 -10.3,0.8 -15,-1.7 -0.6,-0.4 -1.3,-0.6 -1.8,-1.1 -0.2,-0.2 -0.4,-0.6 -0.4,-0.9 0,-1.4 0.5,-2.5 1.6,-3.4 2.7,-2.5 6.5,-4.1 10.1,-4.9 4.4,-0.8 8.7,0.9 12.2,3.7 2.6,2.2 5.4,3.5 8.5,5 0.4,0.2 0.5,1 0.6,1.4 0.7,1.9 0.8,3.5 1,5.4 0.3,1.3 -0.9,2.6 -1.8,3.3 z"
     id="path108" /><path
     style="color:#000000;font-style:normal;font-variant:normal;font-weight:normal;font-stretch:normal;font-size:medium;line-height:normal;font-family:sans-serif;font-variant-ligatures:normal;font-variant-position:normal;font-variant-caps:normal;font-variant-numeric:normal;font-variant-alternates:normal;font-variant-east-asian:normal;font-feature-settings:normal;font-variation-settings:normal;text-indent:0;text-align:start;text-decoration:none;text-decoration-line:none;text-decoration-style:solid;text-decoration-color:#000000;letter-spacing:normal;word-spacing:normal;text-transform:none;writing-mode:lr-tb;direction:ltr;text-orientation:mixed;dominant-baseline:auto;baseline-shift:baseline;text-anchor:start;white-space:normal;shape-padding:0;shape-margin:0;inline-size:0;clip-rule:nonzero;display:inline;overflow:visible;visibility:visible;isolation:auto;mix-blend-mode:normal;color-interpolation:sRGB;color-interpolation-filters:linearRGB;solid-color:#000000;solid-opacity:1;vector-effect:none;fill:#f0ebe5;fill-opacity:1;fill-rule:nonzero;stroke:none;stroke-width:0.2;stroke-linecap:butt;stroke-linejoin:miter;stroke-miterlimit:10;stroke-dasharray:none;stroke-dashoffset:0;stroke-opacity:1.0;color-rendering:auto;image-rendering:auto;shape-rendering:auto;text-rendering:auto;enable-background:accumulate;stop-color:#000000;stop-opacity:1;"
     d="M 29.800781 5.9003906 C 28.000781 5.9003906 26.098892 5.8997435 24.394531 6 C 21.983993 6.1006656 19.770491 6.6033834 17.660156 7.5078125 C 15.146578 8.613787 13.212195 10.143409 12.503906 12.976562 C 11.903327 15.079101 11.403309 17.27787 10.804688 19.373047 L 10.802734 19.375 C 9.9014662 22.980073 9.3021346 26.573578 7.7089844 30.058594 L 7.7089844 30.060547 C 5.9005904 34.179667 5.49848 38.598342 6 43.011719 C 6.1988615 45.402061 6.0990109 47.900297 6.1992188 50.205078 L 6.2011719 50.208984 L 6.2011719 50.212891 C 6.298882 50.994572 6.1984914 51.994181 6.3007812 52.8125 C 6.504859 54.343083 7.4359863 55.582453 9.0664062 56.09375 C 9.9839624 56.499739 10.994114 56.599429 12.091797 56.699219 L 12.09375 56.699219 L 12.095703 56.699219 C 14.002692 56.799587 15.895736 56.701117 17.779297 57.097656 L 17.78125 57.097656 L 17.785156 57.099609 C 23.584984 57.999583 29.289293 58.899339 35.197266 59.099609 C 40.506042 59.199775 45.717397 58.598858 50.828125 57.095703 C 52.833983 56.493946 54.845487 55.690044 56.658203 54.380859 L 56.660156 54.380859 C 57.870112 53.473393 58.89522 52.348002 59.099609 50.712891 C 59.40161 48.196215 58.997659 45.781314 58.195312 43.373047 C 57.985982 42.640391 57.453969 42.214089 56.740234 41.908203 C 53.749832 40.612362 51.058262 38.916769 48.564453 36.921875 L 48.5625 36.921875 C 45.146721 34.109319 41.016318 32.497702 36.386719 33.101562 C 32.565076 33.60441 29.249599 35.31302 26.042969 37.517578 C 25.563178 37.837514 25.111327 38.183466 24.611328 38.550781 L 24.597656 38.480469 C 24.099165 35.988012 23.899438 33.484321 23.09375 31.167969 L 23.095703 31.169922 C 22.300864 28.686049 22.20018 26.194143 22 23.591797 L 22 23.585938 L 21.998047 23.580078 C 21.951064 23.345164 21.977541 23.209104 22.048828 23.128906 C 22.120115 23.048708 22.263333 23 22.5 23 L 22.505859 23 L 22.511719 23 C 23.302559 22.901145 24.210928 22.904022 24.939453 22.591797 L 24.919922 22.597656 C 25.412379 22.499165 25.658263 22.493697 26.039062 22.779297 C 26.451408 23.13814 26.899066 23.323494 27.369141 23.349609 C 27.841465 23.37585 28.333017 23.245601 28.84375 22.990234 L 28.845703 22.988281 L 28.847656 22.988281 C 29.937591 22.393771 30.930002 22.094523 32.033203 21.693359 L 32.035156 21.693359 C 33.365626 21.18164 34.096783 20.140265 34.199219 18.808594 L 34.199219 18.804688 L 34.199219 18.800781 C 34.199219 18.717448 34.222259 18.574391 34.279297 18.4375 C 34.336335 18.300609 34.426022 18.169761 34.554688 18.083984 L 34.570312 18.072266 L 34.582031 18.058594 C 35.096693 17.338067 35.202479 16.582692 34.789062 15.755859 L 34.792969 15.761719 C 33.892388 13.560299 32.897342 11.268212 32.599609 8.7871094 L 32.599609 8.7851562 L 32.599609 8.7832031 C 32.494278 8.151212 32.085087 7.5471277 31.789062 6.9550781 L 31.785156 6.9453125 L 31.777344 6.9355469 C 31.266149 6.3221135 30.634115 5.9003906 29.800781 5.9003906 z M 29.800781 6.0996094 C 30.564946 6.0996094 31.129463 6.4772564 31.617188 7.0605469 C 31.920025 7.6630666 32.306536 8.2532763 32.400391 8.8164062 C 32.703218 11.33381 33.708459 13.640427 34.607422 15.837891 L 34.609375 15.841797 L 34.611328 15.84375 C 34.997912 16.616917 34.903307 17.261933 34.417969 17.941406 L 34.445312 17.916016 C 34.273978 18.030239 34.163665 18.198219 34.095703 18.361328 C 34.027741 18.524437 34 18.684115 34 18.800781 L 34 18.792969 C 33.902436 20.061298 33.234374 21.017579 31.964844 21.505859 C 30.868711 21.904386 29.861439 22.207326 28.751953 22.8125 C 28.264347 23.055642 27.807248 23.174079 27.380859 23.150391 C 26.953184 23.126631 26.55203 22.962762 26.166016 22.625 L 26.162109 22.623047 L 26.160156 22.619141 C 25.740956 22.304741 25.388402 22.300835 24.880859 22.402344 L 24.871094 22.404297 L 24.861328 22.408203 C 24.189853 22.695978 23.297441 22.699636 22.488281 22.800781 L 22.5 22.800781 C 22.236667 22.800781 22.029103 22.851292 21.900391 22.996094 C 21.771678 23.140896 21.749717 23.354055 21.802734 23.619141 C 22.001941 26.212534 22.100373 28.718206 22.904297 31.230469 L 22.904297 31.232422 L 22.90625 31.232422 C 23.680112 33.457276 23.889203 35.889777 24.363281 38.332031 C 24.333371 38.336228 24.301903 38.340374 24.28125 38.359375 C 24.252778 38.385569 24.239881 38.415123 24.230469 38.443359 C 24.19282 38.556307 24.199219 38.700391 24.199219 38.900391 L 24.199219 39.09375 L 24.357422 38.980469 C 24.466415 38.902617 24.536379 38.852601 24.636719 38.779297 L 24.662109 38.804688 L 24.654297 38.765625 C 25.191329 38.37284 25.658963 38.015119 26.15625 37.683594 L 26.15625 37.681641 C 29.34962 35.486199 32.633752 33.79598 36.412109 33.298828 C 40.981944 32.702763 45.051569 34.29132 48.435547 37.078125 L 48.4375 37.078125 C 50.943341 39.082798 53.651058 40.787854 56.660156 42.091797 C 57.346422 42.385911 57.813236 42.76039 58.003906 43.427734 L 58.003906 43.429688 L 58.005859 43.431641 C 58.802697 45.822154 59.198236 48.205457 58.900391 50.6875 C 58.70478 52.252389 57.729107 53.32817 56.539062 54.220703 C 54.75235 55.510579 52.764804 56.306301 50.771484 56.904297 C 45.682842 58.400956 40.493668 59.00004 35.203125 58.900391 C 29.313144 58.70073 23.618397 57.802057 17.820312 56.902344 C 15.905177 56.499157 14.001116 56.599292 12.109375 56.5 L 12.105469 56.5 C 11.007685 56.400174 10.020041 56.299055 9.140625 55.908203 L 9.1347656 55.90625 L 9.1289062 55.904297 C 7.5621942 55.414699 6.6957292 54.255078 6.5 52.787109 C 6.4022899 52.005428 6.5007274 51.005819 6.3984375 50.1875 L 6.4003906 50.195312 C 6.3006529 47.901345 6.3999251 45.400664 6.1992188 42.992188 L 6.1992188 42.990234 L 6.1992188 42.988281 C 5.7007388 38.601658 6.099019 34.221505 7.890625 30.140625 C 9.4969238 26.626846 10.097874 23.021438 10.996094 19.427734 L 10.996094 19.423828 C 11.596673 17.321289 12.096691 15.12252 12.695312 13.027344 L 12.697266 13.025391 L 12.697266 13.023438 C 13.388977 10.256591 15.253813 8.7854318 17.740234 7.6914062 C 19.829317 6.796085 22.01561 6.2987474 24.404297 6.1992188 L 24.40625 6.1992188 C 26.10189 6.0994752 28.000781 6.0996094 29.800781 6.0996094 z M 25.296875 6.9003906 C 22.387617 7.0007099 19.572491 7.5012888 17.054688 8.8105469 C 15.13142 9.7220602 13.908078 11.252869 13.402344 13.376953 C 13.002544 15.076102 12.602797 16.673538 12.103516 18.371094 C 10.901166 22.479122 10.201587 26.776367 8.5078125 30.761719 C 7.2039005 33.971348 6.398402 37.390306 6.8007812 41.011719 L 6.8007812 41.013672 L 6.8007812 41.015625 C 6.9999023 42.309912 7.1011418 43.707421 7.2011719 45.007812 L 7.1992188 45 L 7.1992188 51 C 7.1992188 52.259333 7.3751191 53.159282 7.8710938 53.798828 C 8.3670684 54.438374 9.171038 54.796084 10.382812 54.998047 L 10.384766 54.998047 C 12.290995 55.29903 14.093957 55.39999 15.994141 55.5 L 15.998047 55.5 L 16 55.5 C 17.718019 55.5 19.136853 54.993503 20.544922 54.189453 L 20.548828 54.1875 C 20.753213 54.085026 20.949542 53.967123 21.107422 53.935547 C 21.186924 53.919646 21.25275 53.922237 21.316406 53.951172 C 21.380063 53.980107 21.445986 54.039534 21.513672 54.152344 C 21.650053 54.379645 21.646801 54.560984 21.572266 54.720703 C 21.49773 54.880422 21.341343 55.018782 21.15625 55.111328 C 20.738361 55.320272 20.436799 55.619491 20.054688 55.810547 L 20 55.837891 L 20 56.388672 L 20.089844 56.398438 C 24.590005 56.898455 29.190072 57.39871 33.691406 57.798828 L 33.693359 57.798828 C 39.504615 58.199604 45.118142 57.598884 50.730469 55.794922 C 52.632721 55.194211 54.445289 54.491653 55.960938 53.179688 C 56.417617 52.824493 56.950146 52.319022 57.333984 51.730469 C 57.717823 51.141916 57.955086 50.462925 57.796875 49.777344 C 57.597986 47.885077 57.49666 46.275254 56.792969 44.365234 L 56.796875 44.375 C 56.748777 44.182609 56.697956 43.878285 56.607422 43.59375 C 56.516888 43.309215 56.389253 43.032517 56.144531 42.910156 C 53.043671 41.40974 50.251866 40.113508 47.664062 37.923828 L 47.664062 37.921875 L 47.662109 37.921875 C 44.146329 35.109251 39.818625 33.39466 35.382812 34.201172 L 35.380859 34.201172 L 35.378906 34.203125 C 31.767615 35.005634 27.95479 36.607792 25.236328 39.123047 C 25.235553 39.123681 25.23515 39.124365 25.234375 39.125 C 25.233726 39.125601 25.233071 39.126352 25.232422 39.126953 C 24.116226 40.042181 23.599609 41.177773 23.599609 42.599609 C 23.599609 42.944054 23.805727 43.346742 24.029297 43.570312 C 24.552867 44.093883 25.260818 44.294972 25.84375 44.683594 L 25.849609 44.685547 L 25.853516 44.6875 C 30.575115 47.198989 35.70305 47.701679 40.923828 46.396484 L 40.919922 46.398438 C 41.164893 46.349443 41.376872 46.328364 41.537109 46.371094 C 41.693937 46.412914 41.80778 46.510291 41.898438 46.728516 C 41.940344 46.997839 41.902849 47.128061 41.808594 47.212891 C 41.712066 47.299765 41.528736 47.352847 41.28125 47.402344 L 41.277344 47.402344 L 41.275391 47.402344 C 36.792296 48.498211 32.31678 48.398583 27.9375 46.707031 L 27.935547 46.707031 C 26.44319 46.109946 24.944177 45.310668 23.441406 44.609375 L 23.332031 44.558594 L 23.302734 44.675781 C 23.210343 45.045345 22.9169 45.443543 22.710938 45.855469 C 22.613919 46.049506 22.489272 46.236319 22.369141 46.316406 C 22.309075 46.35645 22.255754 46.371916 22.195312 46.363281 C 22.134871 46.354647 22.060391 46.318204 21.970703 46.228516 L 21.958984 46.21875 L 21.945312 46.210938 C 21.93109 46.203826 21.902738 46.171816 21.880859 46.111328 C 21.858981 46.050841 21.843689 45.96784 21.837891 45.880859 C 21.826293 45.706899 21.85656 45.509535 21.888672 45.445312 L 21.890625 45.443359 L 21.890625 45.441406 C 22.693425 43.635106 23.299996 41.72068 23.199219 39.796875 L 23.199219 39.794922 C 23.098817 36.587244 22.598661 33.375293 21.292969 30.261719 L 21.289062 30.253906 L 21.285156 30.248047 C 20.998271 29.769905 20.900391 29.188498 20.900391 28.599609 L 20.900391 28.597656 L 20.900391 28.595703 C 20.800417 26.696206 20.600028 24.697741 20.400391 22.800781 C 20.400391 22.700781 20.400117 22.571752 20.386719 22.451172 C 20.373321 22.330592 20.35684 22.214262 20.271484 22.128906 C 19.757342 21.614764 19.154378 21.31387 18.564453 20.822266 L 18.429688 20.970703 C 18.506117 21.047133 18.5982 21.198999 18.503906 21.576172 L 18.5 21.587891 L 18.5 21.599609 C 18.5 22.994847 18.400391 24.495556 18.400391 26 C 18.400391 26.191667 18.374357 26.399003 18.279297 26.546875 C 18.187393 26.689837 18.02337 26.786219 17.71875 26.792969 C 17.460415 26.701459 17.363598 26.592497 17.322266 26.4375 C 17.279536 26.277263 17.300781 26.057448 17.300781 25.800781 L 17.300781 18.699219 L 17.199219 18.699219 C 16.594557 18.699219 16.204957 18.791642 15.734375 18.701172 C 15.663002 18.661966 15.544202 18.551854 15.439453 18.423828 C 15.340739 18.303178 15.259493 18.177363 15.210938 18.087891 C 15.21896 18.074439 15.228815 18.059104 15.244141 18.039062 C 15.280698 17.991256 15.336341 17.931237 15.396484 17.871094 C 15.51677 17.750808 15.667992 17.627918 15.744141 17.589844 C 15.808364 17.557732 15.947295 17.550458 16.091797 17.5625 C 16.236299 17.574542 16.383333 17.599609 16.5 17.599609 C 17.261111 17.599609 17.748308 17.473515 18.027344 17.138672 C 18.306379 16.803829 18.349395 16.301682 18.298828 15.59375 L 18.300781 15.599609 C 18.300781 15.516276 18.323222 15.342208 18.359375 15.185547 C 18.377451 15.107216 18.398599 15.030938 18.419922 14.972656 C 18.437636 14.924238 18.455143 14.900923 18.462891 14.888672 C 18.527663 14.862521 18.677624 14.850431 18.835938 14.873047 C 18.997007 14.896057 19.159508 14.945932 19.244141 14.986328 C 19.938096 15.680292 20.63116 16.372641 21.222656 17.0625 C 21.40742 17.293454 21.440721 17.501008 21.371094 17.660156 C 21.301466 17.819305 21.113377 17.955064 20.785156 18.001953 L 20.783203 18.001953 L 20.78125 18.001953 C 20.210261 18.105769 19.800064 18.372243 19.621094 18.771484 C 19.442124 19.170726 19.503147 19.680899 19.8125 20.248047 L 19.814453 20.251953 L 19.818359 20.257812 C 20.279592 20.924037 20.783653 21.218922 21.320312 21.310547 C 21.856972 21.402172 22.416514 21.299071 23.015625 21.199219 C 23.340435 21.149248 23.592104 21.11109 23.791016 21.060547 C 23.989927 21.010004 24.140882 20.944897 24.248047 20.830078 C 24.355211 20.715259 24.405267 20.56092 24.421875 20.363281 C 24.438483 20.165642 24.425488 19.918068 24.400391 19.591797 L 24.400391 19.589844 C 24.199939 17.685549 23.801147 15.78895 23.601562 13.798828 C 23.602435 13.748131 23.660833 13.624119 23.748047 13.474609 C 23.816947 13.356494 23.885836 13.201888 23.943359 13.042969 C 24.052858 13.119629 24.169377 13.188517 24.285156 13.259766 C 24.439371 13.354667 24.562551 13.461143 24.603516 13.625 L 24.607422 13.644531 L 24.619141 13.660156 C 24.890341 14.021756 24.898936 14.604055 25.001953 15.119141 C 25.202508 16.820467 25.502053 18.319207 25.701172 20.011719 L 25.714844 20.130859 L 25.830078 20.095703 C 26.483178 19.894749 26.877417 19.746778 27.091797 19.460938 C 27.198987 19.318017 27.251992 19.144402 27.263672 18.9375 C 27.275292 18.731662 27.24923 18.48844 27.199219 18.1875 L 27.199219 18.183594 C 26.998631 16.481129 26.599799 14.786802 26.400391 13.099609 C 26.400391 13.049609 26.465853 12.866852 26.548828 12.724609 C 26.590315 12.653488 26.635279 12.588295 26.671875 12.544922 C 26.688582 12.525121 26.703099 12.512152 26.712891 12.503906 C 26.784373 12.506887 26.947922 12.547028 27.095703 12.615234 C 27.248754 12.685873 27.384008 12.791453 27.410156 12.84375 L 27.417969 12.859375 L 27.429688 12.871094 C 27.697818 13.139224 27.699437 13.507491 27.802734 13.921875 C 27.802905 13.922559 27.802563 13.923144 27.802734 13.923828 C 28.003234 15.623624 28.300974 17.220392 28.5 18.912109 L 28.511719 19 L 28.599609 19 C 29.207943 19 29.611646 18.929369 29.857422 18.683594 C 30.103197 18.437818 30.1505 18.05003 30.099609 17.490234 L 30.099609 17.488281 C 29.898884 15.782112 29.500263 14.185917 29.400391 12.5 L 29.400391 12.498047 C 29.400816 12.430676 29.44496 12.256564 29.513672 12.119141 C 29.54819 12.050103 29.590126 11.988501 29.626953 11.949219 C 29.66378 11.909937 29.690885 11.900391 29.699219 11.900391 C 29.782552 11.900391 29.958573 11.922832 30.115234 11.958984 C 30.193565 11.977061 30.267891 11.998209 30.326172 12.019531 C 30.384453 12.040854 30.428258 12.068883 30.429688 12.070312 C 30.706117 12.346742 30.800781 12.716276 30.800781 13.099609 L 30.800781 13.103516 L 30.800781 13.107422 C 30.901432 14.516536 31.200949 16.015683 31.400391 17.710938 L 31.410156 17.794922 L 31.494141 17.798828 C 32.262831 17.850074 32.847197 17.674363 33.175781 17.291016 C 33.503973 16.908126 33.550013 16.335985 33.292969 15.666016 C 32.59443 13.769983 31.99443 11.769201 31.292969 9.8652344 L 31.292969 9.8632812 C 31.106629 9.3974321 31.102013 8.5923983 30.896484 7.8730469 L 30.894531 7.8671875 L 30.892578 7.8632812 C 30.682333 7.3376681 30.233724 6.9003906 29.400391 6.9003906 L 25.298828 6.9003906 L 25.296875 6.9003906 z M 25.300781 7.0996094 L 29.400391 7.0996094 C 30.164829 7.0996094 30.51494 7.4612349 30.705078 7.9335938 C 30.897783 8.6128849 30.8944 9.4049462 31.107422 9.9375 C 31.805598 11.83285 32.404291 13.831179 33.105469 15.734375 L 33.107422 15.736328 C 33.349342 16.36532 33.294854 16.843504 33.023438 17.160156 C 32.766355 17.460086 32.256885 17.600429 31.585938 17.576172 C 31.385981 15.924453 31.097308 14.455343 31 13.099609 C 31 12.682943 30.893883 12.253258 30.570312 11.929688 C 30.521742 11.881117 30.464375 11.857584 30.394531 11.832031 C 30.324688 11.806479 30.244326 11.785049 30.160156 11.765625 C 29.991817 11.726778 29.815885 11.699219 29.699219 11.699219 C 29.607552 11.699219 29.537392 11.751782 29.480469 11.8125 C 29.423546 11.873218 29.376419 11.950287 29.335938 12.03125 C 29.254975 12.193176 29.199219 12.366667 29.199219 12.5 L 29.199219 12.503906 L 29.199219 12.505859 C 29.299921 14.217793 29.701348 15.819854 29.900391 17.511719 C 29.949034 18.0501 29.895692 18.36212 29.716797 18.541016 C 29.551046 18.706767 29.197021 18.770156 28.683594 18.78125 C 28.483304 17.117898 28.195206 15.547919 28 13.888672 L 27.998047 13.882812 L 27.996094 13.875 C 27.901355 13.496044 27.892753 13.075417 27.576172 12.746094 C 27.49915 12.606449 27.346103 12.510401 27.179688 12.433594 C 27.007739 12.354233 26.832552 12.300781 26.699219 12.300781 C 26.645052 12.300781 26.617802 12.323175 26.591797 12.34375 C 26.565792 12.364325 26.543421 12.387702 26.519531 12.416016 C 26.471752 12.472643 26.422966 12.546121 26.376953 12.625 C 26.284928 12.782758 26.199219 12.949609 26.199219 13.099609 L 26.199219 13.105469 L 26.201172 13.111328 C 26.402076 14.819011 26.800904 16.518621 27 18.210938 L 27 18.214844 L 27.001953 18.216797 C 27.051435 18.513687 27.074648 18.745184 27.064453 18.925781 C 27.054258 19.106379 27.011951 19.232764 26.931641 19.339844 C 26.785918 19.53414 26.417347 19.678163 25.878906 19.851562 C 25.678701 18.205183 25.393096 16.735847 25.199219 15.087891 L 25.199219 15.083984 L 25.197266 15.080078 C 25.10175 14.6025 25.099054 13.999522 24.785156 13.5625 C 24.721367 13.338077 24.556557 13.191956 24.390625 13.089844 C 24.21984 12.984745 24.047133 12.906508 23.970703 12.830078 L 23.845703 12.705078 L 23.802734 12.875 C 23.757014 13.05788 23.663324 13.225597 23.576172 13.375 C 23.48902 13.524403 23.400391 13.650781 23.400391 13.800781 L 23.400391 13.804688 L 23.400391 13.810547 C 23.60108 15.817443 24.001898 17.718231 24.201172 19.611328 C 24.225803 19.932473 24.237221 20.172388 24.222656 20.345703 C 24.208015 20.519939 24.169398 20.620679 24.101562 20.693359 C 24.033727 20.76604 23.922573 20.820856 23.740234 20.867188 C 23.557896 20.913519 23.309565 20.951924 22.984375 21.001953 C 22.383486 21.102101 21.841857 21.196657 21.353516 21.113281 C 20.867221 21.030255 20.425263 20.774436 19.988281 20.146484 C 19.701131 19.616806 19.659304 19.177834 19.804688 18.853516 C 19.950717 18.527757 20.289349 18.295403 20.818359 18.199219 L 20.814453 18.199219 C 21.186232 18.146107 21.449315 17.981086 21.554688 17.740234 C 21.66006 17.499383 21.594143 17.206546 21.378906 16.9375 L 21.376953 16.935547 L 21.375 16.935547 C 20.771427 16.231378 20.071094 15.530078 19.371094 14.830078 L 19.359375 14.818359 L 19.34375 14.810547 C 19.225861 14.751603 19.047521 14.702101 18.863281 14.675781 C 18.679042 14.649461 18.497209 14.640068 18.355469 14.710938 L 18.339844 14.71875 L 18.330078 14.728516 C 18.281508 14.777086 18.257974 14.834453 18.232422 14.904297 C 18.206869 14.974141 18.185439 15.056455 18.166016 15.140625 C 18.127168 15.308964 18.099609 15.482943 18.099609 15.599609 L 18.099609 15.603516 L 18.099609 15.607422 C 18.149043 16.299489 18.094011 16.746562 17.873047 17.011719 C 17.652083 17.276876 17.238889 17.400391 16.5 17.400391 C 16.416667 17.400391 16.26292 17.376239 16.107422 17.363281 C 15.951924 17.350323 15.792027 17.342268 15.65625 17.410156 C 15.532399 17.472082 15.38362 17.598802 15.253906 17.728516 C 15.189049 17.793373 15.13063 17.859525 15.085938 17.917969 C 15.063591 17.947191 15.044377 17.974392 15.029297 18.001953 C 15.014216 18.029514 15 18.053776 15 18.099609 L 15 18.123047 L 15.009766 18.144531 C 15.065728 18.256457 15.168476 18.408173 15.285156 18.550781 C 15.401836 18.69339 15.526436 18.823765 15.65625 18.888672 L 15.667969 18.894531 L 15.679688 18.898438 C 16.168057 18.996111 16.570287 18.911715 17.099609 18.900391 L 17.099609 25.800781 C 17.099609 26.044115 17.071636 26.273518 17.128906 26.488281 C 17.186176 26.703044 17.347414 26.887289 17.667969 26.994141 L 17.683594 27 L 17.699219 27 C 18.073028 27 18.317326 26.856425 18.447266 26.654297 C 18.577205 26.452169 18.599609 26.208333 18.599609 26 C 18.599609 24.504444 18.699219 23.004371 18.699219 21.599609 L 18.697266 21.625 C 18.765066 21.353799 18.671117 21.256056 18.615234 21.115234 C 19.156935 21.533779 19.694779 21.837357 20.128906 22.271484 C 20.143551 22.286129 20.175898 22.368237 20.1875 22.472656 C 20.199102 22.577076 20.199219 22.700781 20.199219 22.800781 L 20.199219 22.804688 L 20.201172 22.810547 C 20.400933 24.708277 20.599293 26.70462 20.699219 28.599609 C 20.699219 29.21072 20.800167 29.829705 21.113281 30.351562 L 21.107422 30.337891 C 22.401467 33.42369 22.90026 36.611056 23 39.802734 L 23 39.804688 C 23.098639 41.678833 22.506972 43.563573 21.710938 45.355469 C 21.643049 45.491246 21.625269 45.693492 21.638672 45.894531 C 21.645373 45.995051 21.66016 46.0933 21.691406 46.179688 C 21.721827 46.263792 21.770064 46.339127 21.851562 46.382812 C 21.955214 46.480681 22.060647 46.545215 22.167969 46.560547 C 22.282527 46.576912 22.390535 46.542378 22.480469 46.482422 C 22.660337 46.36251 22.78569 46.151275 22.888672 45.945312 C 23.065928 45.5908 23.315841 45.218889 23.443359 44.830078 C 24.91181 45.518985 26.38478 46.301178 27.863281 46.892578 C 32.28217 48.599876 36.805303 48.700637 41.320312 47.597656 C 41.572827 47.547153 41.787934 47.499453 41.941406 47.361328 C 42.094879 47.223203 42.152423 47.000478 42.099609 46.683594 L 42.097656 46.673828 L 42.09375 46.662109 C 41.985212 46.390765 41.802654 46.235005 41.587891 46.177734 C 41.373128 46.120464 41.135888 46.150166 40.880859 46.201172 L 40.878906 46.203125 L 40.875 46.203125 C 35.695778 47.49793 30.625666 47.00023 25.947266 44.511719 C 25.332387 44.104202 24.644136 43.903902 24.169922 43.429688 C 23.993492 43.253258 23.800781 42.855165 23.800781 42.599609 C 23.800781 41.223419 24.282694 40.161461 25.363281 39.277344 L 25.365234 39.275391 L 25.367188 39.273438 C 28.048473 36.790766 31.834891 35.195545 35.421875 34.398438 C 39.784695 33.606676 44.053937 35.291587 47.537109 38.078125 C 50.148238 40.286951 52.957045 41.591004 56.054688 43.089844 C 56.209966 43.167483 56.333503 43.390785 56.417969 43.65625 C 56.502435 43.921715 56.551613 44.216219 56.603516 44.423828 L 56.603516 44.429688 L 56.605469 44.435547 C 57.300241 46.321357 57.399361 47.908185 57.599609 49.810547 L 57.601562 49.816406 L 57.603516 49.822266 C 57.745304 50.436684 57.532177 51.059647 57.166016 51.621094 C 56.799854 52.182541 56.281211 52.676679 55.837891 53.021484 L 55.835938 53.023438 L 55.833984 53.025391 C 54.350479 54.311095 52.565919 55.006733 50.669922 55.605469 C 45.082886 57.401302 39.497022 57.99856 33.708984 57.599609 C 29.239421 57.202315 24.671218 56.70768 20.199219 56.210938 L 20.199219 55.955078 C 20.58558 55.748396 20.881078 55.470594 21.244141 55.289062 C 21.459048 55.181609 21.653442 55.019968 21.753906 54.804688 C 21.854371 54.589407 21.849166 54.321526 21.685547 54.048828 C 21.603233 53.911638 21.506656 53.818722 21.398438 53.769531 C 21.290219 53.720341 21.176357 53.718635 21.068359 53.740234 C 20.852364 53.783433 20.649115 53.912747 20.455078 54.009766 L 20.453125 54.011719 L 20.451172 54.013672 C 19.06223 54.807353 17.683449 55.299574 16.005859 55.300781 C 14.106043 55.200791 12.309786 55.099798 10.416016 54.800781 C 9.2277901 54.602744 8.4833222 54.261235 8.0292969 53.675781 C 7.5752715 53.090328 7.4003906 52.240667 7.4003906 51 L 7.4003906 44.996094 L 7.4003906 44.992188 C 7.3004207 43.692579 7.1989258 42.290088 6.9980469 40.984375 L 7 40.988281 C 6.6023792 37.409694 7.3972714 34.028261 8.6933594 30.837891 L 8.6914062 30.839844 C 10.397632 26.825195 11.099225 22.519706 12.296875 18.427734 C 12.797594 16.72529 13.197456 15.124679 13.597656 13.423828 C 14.091791 11.348461 15.266705 9.8788058 17.142578 8.9902344 L 17.144531 8.9902344 L 17.146484 8.9882812 C 19.628115 7.6978332 22.410746 7.199449 25.300781 7.0996094 z M 32.626953 18.785156 L 32.568359 18.804688 C 31.971522 19.003633 31.271131 19.203243 30.667969 19.404297 L 30.679688 19.402344 C 30.15203 19.507875 29.748731 19.813789 29.263672 20.007812 L 29.259766 20.007812 L 29.255859 20.009766 C 28.461822 20.406784 27.462213 20.807956 26.65625 21.210938 L 26.566406 21.255859 L 26.611328 21.34375 C 26.721763 21.56462 26.887397 21.704383 27.039062 21.787109 C 27.190728 21.869836 27.317057 21.900391 27.400391 21.900391 L 27.417969 21.900391 L 27.433594 21.894531 C 29.136882 21.293371 30.838602 20.591903 32.337891 19.992188 L 32.341797 19.992188 L 32.34375 19.990234 C 32.491453 19.916383 32.544649 19.760584 32.595703 19.607422 C 32.646757 19.45426 32.694582 19.289182 32.783203 19.15625 L 32.800781 19.130859 L 32.800781 19.099609 C 32.800781 19.016276 32.763111 18.952284 32.732422 18.90625 C 32.701733 18.860216 32.669922 18.830078 32.669922 18.830078 L 32.626953 18.785156 z M 32.564453 19.015625 C 32.565333 19.016909 32.56552 19.016249 32.566406 19.017578 C 32.583977 19.043934 32.59544 19.073597 32.597656 19.091797 C 32.506463 19.245793 32.448654 19.409897 32.404297 19.542969 C 32.355624 19.688987 32.307824 19.781836 32.255859 19.808594 C 32.255568 19.808744 32.256151 19.810401 32.255859 19.810547 C 30.764235 20.407262 29.076341 21.099398 27.390625 21.695312 C 27.366935 21.693795 27.253472 21.676077 27.134766 21.611328 C 27.038571 21.558858 26.948006 21.451106 26.865234 21.333984 C 27.637855 20.956093 28.570396 20.576646 29.337891 20.193359 L 29.34375 20.189453 C 29.855225 19.983621 30.248583 19.69169 30.71875 19.597656 L 30.726562 19.597656 L 30.732422 19.595703 C 31.308343 19.40373 31.976117 19.209562 32.564453 19.015625 z M 24.417969 38.560547 C 24.42563 38.566732 24.420692 38.561317 24.429688 38.570312 L 24.494141 38.636719 C 24.463935 38.65875 24.441066 38.674861 24.410156 38.697266 C 24.412593 38.650468 24.414169 38.584344 24.417969 38.560547 z "
     id="path110" /></g>
</g>
</svg>
