<?xml version="1.0" encoding="utf-8"?>
<!-- Generator: Adobe Illustrator 24.0.0, SVG Export Plug-In . SVG Version: 6.00 Build 0)  -->
<svg version="1.1" id="Слой_1" xmlns="http://www.w3.org/2000/svg" xmlns:xlink="http://www.w3.org/1999/xlink" x="0px" y="0px"
	 viewBox="0 0 65 65" style="enable-background:new 0 0 65 65;" xml:space="preserve">
<style type="text/css">
	.st0{stroke:#FFFFFF;stroke-width:0.15;stroke-miterlimit:10;}
</style>
<g id="Слой_2_2_">
	<g>
		<path class="st0" d="M16.1,58.9c0-14.3,0-28.7,0-43c1.8,0,3.7,0,5.5,0c0.1-0.5,0.2-0.9,0.4-1.4c0.5-1.7,1.1-3.3,2.1-4.7
			c1.4-1.9,3.3-3.2,5.6-3.7c2.2-0.5,4.4-0.5,6.6,0.3c2.7,0.8,4.6,2.6,6,5c0.8,1.4,1.3,2.8,1.7,4.4c0.1,0.2,0.1,0.3,0.3,0.3
			c1.8,0,3.7,0,5.5,0c0.1,0,0.2,0,0.4,0c0,14.3,0,28.7,0,43C38.8,58.9,27.5,58.9,16.1,58.9z M49.3,58.1c0-0.1,0-0.2,0-0.3
			c0-13.6,0-27.2,0-40.8c0-0.2-0.1-0.3-0.3-0.3c-1.5,0-3,0-4.5,0c-0.1,0-0.2,0-0.3,0c0,0.1,0,0.2,0,0.3c0.2,1.2,0.4,2.4,0.5,3.6
			c0.1,1.4,0,2.8,0,4.2c0,0.2,0,0.3,0.2,0.4c0.6,0.5,0.8,1,0.8,1.7c0,1.2-0.8,2.2-2,2.3c-1.2,0.1-2.2-0.7-2.3-2
			c-0.1-1.1,0.6-2.2,1.8-2.4c0.2,0,0.5,0,0.7-0.1v-0.1c0.2-2.6,0-5.1-0.5-7.6c0-0.2-0.1-0.3-0.4-0.3c-6.8,0-13.6,0-20.4,0
			c-0.1,0-0.2,0-0.3,0c-0.4,2.7-0.4,5.3-0.1,8c0.2,0,0.3,0,0.4,0c0.9,0,1.8,0.6,2.1,1.6c0.3,0.9,0,1.9-0.8,2.5
			c-0.7,0.6-1.8,0.6-2.6-0.1c-1.1-0.8-1.1-2.6-0.1-3.5c0.1-0.1,0.2-0.2,0.2-0.3c-0.1-0.8-0.2-1.7-0.2-2.6c-0.1-1.7,0-3.3,0.2-5
			c0-0.2,0.1-0.5,0.1-0.6c-1.6,0-3,0-4.6,0c0,13.8,0,27.6,0,41.4C27.7,58.1,38.5,58.1,49.3,58.1z M43.2,15.9c0-0.1,0-0.2,0-0.2
			c-0.4-1.3-0.7-2.6-1.4-3.7c-1.3-2.5-3.1-4.1-5.7-5c-2.1-0.6-4.2-0.6-6.4-0.2c-2.2,0.6-3.9,1.7-5.1,3.7c-0.8,1.2-1.3,2.6-1.7,3.9
			c-0.1,0.5-0.2,0.9-0.3,1.4C29.4,15.9,36.3,15.9,43.2,15.9z M24.1,26.9c0-0.7-0.6-1.4-1.4-1.4c-0.7,0-1.4,0.6-1.4,1.4
			s0.6,1.4,1.4,1.4C23.4,28.3,24.1,27.7,24.1,26.9z M44.8,26.9c0-0.7-0.6-1.4-1.4-1.4c-0.7,0-1.3,0.6-1.3,1.4s0.6,1.4,1.3,1.4
			C44.3,28.3,44.8,27.7,44.8,26.9z"/>
	</g>
</g>
</svg>
