<?xml version="1.0" encoding="utf-8"?>
<!-- Generator: Adobe Illustrator 24.0.0, SVG Export Plug-In . SVG Version: 6.00 Build 0)  -->
<svg version="1.1" id="Слой_3" xmlns="http://www.w3.org/2000/svg" xmlns:xlink="http://www.w3.org/1999/xlink" x="0px" y="0px"
	 viewBox="0 0 65 65" style="enable-background:new 0 0 65 65;" xml:space="preserve">
<style type="text/css">
	.st0{fill:none;stroke:#000000;stroke-linecap:round;stroke-miterlimit:10;}
</style>
<g>
	<g>
		<path d="M51.8,17.1c-0.3,0.1-0.6,0.2-0.8,0.3c-1.4,0.6-2.7,1.3-3.7,2.5c-0.3,0.3-0.4,0.6-0.4,1c0,1.8,0,3.4,0,5.2
			c0,0.1,0,0.2,0,0.3c0.2,0,0.3,0,0.5,0c0,0.3,0,0.6,0,0.8c-0.2,0-0.3,0-0.5,0c0,0.1,0,0.2,0,0.3c0,3.1,0,6,0,9.1
			c0,0.6-0.1,1-0.3,1.5c-0.6,1.4-1.4,2.7-2.4,3.9c-2.6,3.1-5.7,5.8-9.3,7.8c-0.9,0.5-1.9,0.9-3,1c-0.7,0.1-1.4-0.1-2-0.3
			c-1.5-0.6-2.8-1.3-4-2.3c-3.1-2.4-5.7-5.4-7.5-8.9c-0.3-0.6-0.6-1.2-0.7-1.8c-0.2-0.4-0.2-0.7-0.2-1.1c-0.1-6.6-0.2-13-0.3-19.6
			c0-0.3,0.1-0.4,0.3-0.5c1.2-0.6,2.5-1.2,3.8-1.7c0.1,0,0.2-0.1,0.3-0.1l0,0c-0.5-0.3-0.6-0.6-0.9-1c-0.6-0.7-1.3-1.3-2.2-1.5
			c-0.7-0.3-1.4,0-1.8,0.6c-0.6,0.6-0.8,1.5-1,2.3c-0.5,1.9-0.3,3.8,0.2,5.6c0.3,1.2,0.7,2.4,1.3,3.5c-0.3,0.1-0.5,0.3-0.7,0.4
			c0,0-0.1,0-0.1-0.1c-1.2-2.4-1.9-4.9-1.9-7.5c0-1.4,0.3-2.7,0.8-3.9c0.3-0.5,0.6-1,0.9-1.4c0.8-0.7,1.7-0.8,2.7-0.5
			c0.4,0.2,0.7,0.4,1.1,0.6c0.1-1.2,0.7-1.9,1.7-2.7C23,8,24.5,7.5,26,7.3c2.3-0.2,4.5-0.2,6.8,0.1c3,0.3,5.8,0.9,8.6,1.9
			c3.5,1.2,6.5,3.2,9.1,5.9c0.3,0.4,0.6,0.7,0.9,1.1c0.1,0.1,0.2,0.2,0.4,0.2C51.8,16.6,51.8,16.9,51.8,17.1z M18.3,27.2
			c0,0.1,0,0.2,0,0.3c0.1,3.1,0.1,6.1,0.2,9.2c0,0.1,0,0.3,0.1,0.4c0.4,0.9,0.7,1.9,1.2,2.7c1.8,3.1,4.2,5.7,6.9,7.9
			c1.1,0.8,2.3,1.6,3.6,2c0.8,0.3,1.7,0.4,2.5,0c0.6-0.3,1.3-0.5,1.9-0.8c3.5-1.9,6.6-4.5,9.1-7.6c0.9-1.1,1.7-2.3,2.2-3.7
			c0.1-0.2,0.1-0.5,0.1-0.6c0-3.1,0-6.3,0-9.4c0-0.1,0-0.2,0-0.3c-0.3,0-0.6,0-0.9,0c0-0.3,0-0.6,0-0.8c0.3,0,0.6,0,0.8,0
			c0-1.7,0-3.4,0-5.1c-0.1,0-0.2,0-0.3-0.1c0-0.1,0-0.3,0.1-0.4c0.3-0.6,0.3-1.3,0.3-1.9c0-0.5,0-1,0-1.5c0-0.2-0.1-0.3-0.3-0.5
			c-3.9-2.2-8-3.2-12.5-3.4c-2.4-0.1-4.7,0.1-7.1,0.5c-2.8,0.6-5.5,1.4-8,2.7C18,16.8,18,16.9,18,16.9c0,2.4,0.1,4.7,0.1,7.1
			c0,0.6,0,1.4,0,2c0.7,0,1.3,0,2,0c0-0.9,0-1.9,0-2.8c0-0.3,0.1-0.4,0.3-0.5c1.1-0.3,2.2-0.4,3.3-0.5c2.5-0.1,5,0.2,7.4,0.5
			c0.6,0.1,0.6,0.1,0.6,0.7c0,0.8-0.1,1.7-0.1,2.5c0.6,0,1.1,0,1.6,0c0,0.3,0,0.6,0,0.8c-0.6,0-1.1,0-1.7,0c-0.2,0-0.2,0.1-0.3,0.2
			c-0.2,0.6-0.5,1.3-0.7,1.9c-0.6,1.3-1.7,2.3-3.1,2.8c-1,0.3-2,0.2-3.1,0c-2.1-0.4-3.5-1.6-4.2-3.7C20,27.6,20,27,19.9,26.5
			c0,0.1,0,0.2,0,0.4C19.5,27.2,18.9,27.2,18.3,27.2z M50.6,16.7c-0.1-0.1-0.1-0.2-0.2-0.2c-0.2-0.2-0.4-0.5-0.6-0.6
			c-2.6-2.8-5.6-4.9-9.3-6c-2.7-0.8-5.4-1.4-8.1-1.6C30.3,8,28.2,8,26.1,8.3c-1.4,0.3-2.8,0.6-3.9,1.6c-0.4,0.4-0.7,0.6-1,1.1
			c-0.3,0.6-0.3,1.5,0.3,1.9c0.3,0.3,0.6,0.6,0.8,1c0.2,0.2,0.3,0.3,0.5,0.2c2.4-0.7,4.8-1.1,7.3-1.3c3-0.2,5.9,0,8.8,0.6
			c2.8,0.6,5.5,1.6,8,3.1c0.2,0.1,0.3,0.2,0.2,0.5c0,0.6,0,1.1,0,1.7c0,0.1,0,0.2,0,0.3C48.1,18,49.4,17.3,50.6,16.7z M24.6,23.5
			c-0.7,0-1.9,0-3.1,0.3c-0.5,0.1-0.4,0-0.4,0.5c0,0.3,0,0.6,0,0.8c0,0.9,0,1.9,0.2,2.9c0.3,1.1,0.7,2.1,1.9,2.8
			c1.3,0.7,2.8,0.9,4.3,0.6c1.2-0.2,2-1,2.6-2c0.9-1.6,1.2-3.3,1.3-5.2c0-0.2-0.1-0.2-0.2-0.2C28.9,23.8,27,23.5,24.6,23.5z"/>
		<path d="M31.5,55.3c-3.3,1.7-6.6,3.3-9.8,5.1c0-3,0-5.9,0-8.9C24.9,52.8,28.2,54,31.5,55.3z M29.5,55.4c-2.3-0.9-4.6-1.8-6.9-2.7
			c0,2.1,0,4.2,0,6.3C24.8,57.7,27.1,56.6,29.5,55.4z"/>
		<path d="M43.8,51.6c0,3,0,5.9,0,8.9c-3.2-1.7-6.6-3.3-9.8-5.1C37.2,54,40.5,52.8,43.8,51.6z M43,59c0-2.1,0-4.2,0-6.3
			c-2.3,0.9-4.6,1.8-6.9,2.7C38.3,56.6,40.6,57.7,43,59z"/>
		<path d="M40,22.8c1.6-0.1,3.1,0,4.7,0.4c0.6,0.1,0.6,0.1,0.6,0.6c0,1,0,1.9,0,3c0,0.7-0.2,1.5-0.5,2.2c-0.6,1.8-1.9,2.8-3.7,3.1
			c-0.9,0.2-1.9,0.3-2.9,0.2c-1.2-0.2-2.2-0.8-3-1.9c-0.8-1.1-1.2-2.3-1.5-3.6c-0.2-1-0.3-2-0.3-3.1c0-0.4,0-0.4,0.5-0.5
			c1.7-0.2,3.3-0.3,5-0.5C39.3,22.7,39.6,22.8,40,22.8z M34.3,24c0,0.1,0,0.2,0,0.3c0.1,0.6,0.1,1.3,0.2,2c0.2,1.2,0.6,2.4,1.3,3.4
			c0.6,0.9,1.5,1.6,2.7,1.7c0.6,0.1,1.4,0,2.1-0.1c2-0.3,3.1-1.4,3.6-3.3c0.3-1.3,0.3-2.6,0.2-4c0-0.1-0.1-0.2-0.2-0.2
			c-1.1-0.3-2.2-0.3-3.3-0.4c-1.8,0-3.4,0.1-5.2,0.3C35.2,23.9,34.7,24,34.3,24z"/>
		<path d="M23.5,12.3c-0.2-0.3-0.3-0.5-0.5-0.7c1.2-0.7,2.4-1.5,3.7-2.2c0.2,0.3,0.3,0.5,0.5,0.7C26,10.8,24.7,11.6,23.5,12.3z"/>
		<path d="M23.9,25c0.2,0.2,0.4,0.4,0.6,0.6C24,26,23.5,26.5,23.1,27c-0.2-0.2-0.4-0.4-0.5-0.6C22.9,25.9,23.4,25.5,23.9,25z"/>
		<path d="M23.6,29.2c-0.2-0.2-0.4-0.4-0.6-0.6c0.5-0.5,0.9-1,1.5-1.5c0.2,0.2,0.4,0.4,0.6,0.6C24.6,28.2,24.2,28.7,23.6,29.2z"/>
		<path d="M37.9,25c0.2,0.2,0.4,0.4,0.6,0.6C38,26,37.5,26.5,37,27c-0.2-0.2-0.4-0.4-0.5-0.6C37,25.9,37.4,25.5,37.9,25z"/>
		<path d="M38.6,27.2c0.2,0.2,0.4,0.4,0.5,0.6c-0.5,0.5-0.9,0.9-1.5,1.5c-0.2-0.2-0.4-0.4-0.5-0.6C37.7,28.1,38.2,27.7,38.6,27.2z"
			/>
	</g>
	<path class="st0" d="M25.1,37.4c0,0,0,5.3,6.9,5.3c7.2,0,7.2-5.3,7.2-5.3"/>
</g>
</svg>
